<?xml version="1.0" encoding="UTF-8" standalone="no"?> <svg xmlns="http://www.w3.org/2000/svg" xmlns:xlink="http://www.w3.org/1999/xlink" xmlns:serif="http://www.serif.com/" width="100%" height="100%" viewBox="0 0 4925 3021" xml:space="preserve" style="fill-rule:evenodd;clip-rule:evenodd;stroke-linejoin:round;stroke-miterlimit:1.41421;"><g id="Слой-1" serif:id="Слой 1"><path id="blue-trans" serif:id="blue trans" d="M504.746,0c-156.954,-0.033 -303.704,69.929 -408.917,180.142c-60.512,81.175 -89.937,183.854 -91.592,301.283l-0.07,10.838c0.408,708.662 994.921,1942.52 2295.66,2295.27c456.879,123.038 1803.12,449.688 2207.3,13.28c244.404,-394.163 -773.321,-970.259 -1469.77,-1373.6l-92.096,-48.967l-130.308,-81.304l306.775,119.537c577.75,229.038 1167.25,513.238 1561.66,839.675l233.413,-1772.05c34.821,-264.879 -159.163,-483.171 -434.288,-483.229l-3977.76,-0.875Zm709.712,759.754c37.707,0 75.41,-6.992 105.646,-27.791c52.821,-41.684 67.85,-118.067 75.409,-166.659c7.558,-55.579 7.558,-118.062 -30.146,-159.75c-37.704,-34.696 -90.529,-34.696 -128.325,-34.696l-309.379,0c-22.588,0 -52.73,0 -75.409,20.8c-22.679,20.888 -30.146,48.592 -30.146,69.475l-67.941,513.867l120.766,0l30.142,-215.246l309.383,0Zm3175.69,-327.108c61.767,61.796 54.117,164.758 46.371,240.275c-7.742,75.517 -30.883,185.383 -108.133,240.275c-84.905,61.796 -200.692,61.796 -277.855,61.796c-77.25,0 -193.037,0 -254.804,-61.796c-69.416,-68.613 -54.021,-171.663 -46.279,-240.275c7.746,-82.421 30.883,-178.479 108.046,-240.275c84.904,-61.796 193.037,-61.796 277.942,-61.796c77.162,0 192.95,0 254.712,61.796Zm-922.55,542.337l69.367,-512.825l262.421,0.005l15.57,-91.321l-648.441,0l-15.667,91.321c87.533,-0.013 175.075,0.008 262.583,0.012l-69.366,512.808l123.533,0Zm-1408.77,-604.141l-139.016,0l223.921,416.683l-23.138,187.458l123.529,0l23.142,-187.458l339.617,-416.683l-138.93,0l-239.316,312.512l-169.809,-312.512Zm-34.533,604.141l-182.346,-535.529c-15.854,-54.887 -47.566,-68.612 -103.062,-68.612c-55.592,0 -87.304,20.629 -119.017,68.612l-333.071,535.529l134.871,0l87.208,-151.037l333.071,0l47.571,151.037l134.775,0Zm1107.55,-512.837l15.396,-91.313l-385.987,0c-30.792,0 -77.163,7.075 -115.788,35.125c-46.279,28.138 -54.021,77.246 -61.767,112.371c-7.65,28.138 -7.65,77.329 15.488,112.459c15.396,28.05 61.767,42.116 69.512,42.116l254.713,77.242c54.021,21.146 54.021,49.196 54.021,70.254c0,21.145 -7.746,63.261 -69.417,63.263l-370.592,0l0,91.312l409.125,0c38.628,0 84.906,-0.001 123.53,-42.117c30.883,-28.137 38.629,-77.333 46.37,-112.458c0,-28.05 7.65,-84.233 -30.883,-119.362c-23.229,-14.067 -46.371,-28.134 -92.646,-42.2l-231.666,-70.255c-54.021,-13.983 -54.021,-42.116 -54.021,-70.254c0,-6.991 7.741,-28.05 23.229,-42.116c15.394,-14.066 38.529,-14.067 54.021,-14.067l347.362,0Zm764.267,375.533c30.883,48.071 92.65,48.071 162.158,48.071c69.417,0 131.179,-6.904 177.55,-48.071c23.142,-27.446 54.021,-68.612 61.675,-164.758c15.488,-102.963 0,-144.217 -15.396,-164.758c-30.883,-41.167 -100.391,-48.071 -169.808,-48.071c-69.508,0 -131.275,6.904 -177.554,48.071c-30.879,27.445 -54.021,75.516 -61.763,164.758c-7.745,96.146 0,144.129 23.138,164.758Zm-2339.67,-89.25l261.721,0l-79.279,-240.275c0,-6.904 -8.021,-27.446 -15.95,-27.446c-7.929,0 -15.859,13.725 -23.784,27.446l-142.708,240.275Zm-379.7,-280.387c22.592,0 60.293,0.001 75.413,20.883c22.675,20.8 15.116,55.496 15.116,83.288c0,20.8 -7.558,62.483 -30.237,83.37c-22.584,20.8 -52.821,20.8 -82.967,20.8l-241.437,0l22.583,-173.562c7.562,-6.992 7.562,-20.888 15.121,-27.792c7.557,-6.986 22.67,-6.987 30.146,-6.987l196.262,0Z" style="fill:#2c00e0;"></path></g><rect id="Монтажная-областьre" serif:id="Монтажная область" x="0" y="0" width="4925" height="3020.83" style="fill:none;"></rect></svg>